<svg width="66" height="66" viewBox="0 0 66 66" fill="none" xmlns="http://www.w3.org/2000/svg">
<path d="M33.002 0.501953C26.5741 0.501953 20.2905 2.40805 14.9459 5.97919C9.60134 9.55034 5.43573 14.6261 2.97588 20.5647C0.516035 26.5033 -0.127573 33.038 1.12645 39.3424C2.38047 45.6468 5.47579 51.4377 10.021 55.9829C14.5662 60.5281 20.3571 63.6235 26.6615 64.8775C32.9659 66.1315 39.5006 65.4879 45.4392 63.028C51.3778 60.5682 56.4536 56.4026 60.0247 51.058C63.5959 45.7134 65.502 39.4298 65.502 33.002C65.4929 24.3852 62.0658 16.124 55.9729 10.031C49.8799 3.93807 41.6187 0.511053 33.002 0.501953ZM16.152 54.7207C17.9605 51.8922 20.452 49.5645 23.3967 47.9521C26.3415 46.3398 29.6447 45.4946 33.002 45.4946C36.3592 45.4946 39.6625 46.3398 42.6072 47.9521C45.5519 49.5645 48.0434 51.8922 49.852 54.7207C45.0343 58.4675 39.1052 60.5017 33.002 60.5017C26.8988 60.5017 20.9697 58.4675 16.152 54.7207ZM23.002 30.502C23.002 28.5241 23.5885 26.5907 24.6873 24.9463C25.7861 23.3018 27.3479 22.02 29.1751 21.2632C31.0024 20.5063 33.0131 20.3082 34.9529 20.6941C36.8927 21.08 38.6745 22.0324 40.073 23.4309C41.4716 24.8294 42.424 26.6112 42.8098 28.5511C43.1957 30.4909 42.9976 32.5015 42.2408 34.3288C41.4839 36.156 40.2022 37.7178 38.5577 38.8167C36.9132 39.9155 34.9798 40.502 33.002 40.502C30.3498 40.502 27.8063 39.4484 25.9309 37.573C24.0555 35.6977 23.002 33.1541 23.002 30.502ZM53.552 51.2551C50.7637 47.2147 46.8432 44.0889 42.2832 42.2707C44.7326 40.3415 46.52 37.6969 47.3967 34.7048C48.2735 31.7126 48.196 28.5216 47.1751 25.5755C46.1542 22.6295 44.2407 20.0747 41.7005 18.2666C39.1604 16.4585 36.1199 15.4869 33.002 15.4869C29.884 15.4869 26.8436 16.4585 24.3034 18.2666C21.7633 20.0747 19.8497 22.6295 18.8288 25.5755C17.8079 28.5216 17.7304 31.7126 18.6072 34.7048C19.4839 37.6969 21.2713 40.3415 23.7207 42.2707C19.1608 44.0889 15.2402 47.2147 12.452 51.2551C8.92874 47.2931 6.62594 42.3971 5.82086 37.1566C5.01577 31.9162 5.74274 26.5547 7.91421 21.7179C10.0857 16.881 13.6091 12.775 18.0601 9.89425C22.5111 7.0135 27.7 5.48085 33.002 5.48085C38.3039 5.48085 43.4928 7.0135 47.9438 9.89425C52.3949 12.775 55.9182 16.881 58.0897 21.7179C60.2612 26.5547 60.9882 31.9162 60.1831 37.1566C59.378 42.3971 57.0752 47.2931 53.552 51.2551Z" fill="#333232"/>
</svg>
