<svg width="50" height="50" viewBox="0 0 50 50" fill="none" xmlns="http://www.w3.org/2000/svg">
<rect width="50" height="50" rx="25" fill="#e56e53"/>
<path d="M24.9961 4.68555C20.9787 4.68555 17.0515 5.87685 13.7111 8.10882C10.3707 10.3408 7.76721 13.5132 6.2298 17.2248C4.69239 20.9364 4.29014 25.0206 5.0739 28.9608C5.85766 32.9011 7.79224 36.5204 10.633 39.3612C13.4738 42.2019 17.0931 44.1365 21.0333 44.9202C24.9736 45.704 29.0577 45.3018 32.7694 43.7644C36.481 42.2269 39.6534 39.6234 41.8853 36.2831C44.1173 32.9427 45.3086 29.0155 45.3086 24.998C45.3029 19.6126 43.161 14.4493 39.3529 10.6412C35.5448 6.83312 30.3816 4.69123 24.9961 4.68555ZM14.4649 38.5723C15.5952 36.8045 17.1524 35.3496 18.9928 34.3419C20.8333 33.3342 22.8978 32.806 24.9961 32.806C27.0944 32.806 29.1589 33.3342 30.9994 34.3419C32.8398 35.3496 34.397 36.8045 35.5274 38.5723C32.5163 40.914 28.8106 42.1854 24.9961 42.1854C21.1816 42.1854 17.4759 40.914 14.4649 38.5723ZM18.7461 23.4355C18.7461 22.1994 19.1127 20.991 19.7994 19.9632C20.4862 18.9354 21.4623 18.1343 22.6043 17.6613C23.7464 17.1883 25.003 17.0645 26.2154 17.3056C27.4278 17.5468 28.5414 18.1421 29.4155 19.0161C30.2896 19.8902 30.8849 21.0039 31.126 22.2162C31.3672 23.4286 31.2434 24.6853 30.7704 25.8273C30.2973 26.9694 29.4962 27.9455 28.4684 28.6322C27.4406 29.319 26.2322 29.6855 24.9961 29.6855C23.3385 29.6855 21.7488 29.0271 20.5767 27.855C19.4046 26.6829 18.7461 25.0932 18.7461 23.4355ZM37.8399 36.4063C36.0972 33.881 33.6469 31.9274 30.7969 30.791C32.3278 29.5852 33.4449 27.9324 33.9928 26.0623C34.5408 24.1922 34.4924 22.1978 33.8543 20.3565C33.2163 18.5152 32.0203 16.9185 30.4327 15.7885C28.8451 14.6584 26.9448 14.0511 24.9961 14.0511C23.0474 14.0511 21.1471 14.6584 19.5595 15.7885C17.9719 16.9185 16.7759 18.5152 16.1379 20.3565C15.4998 22.1978 15.4514 24.1922 15.9994 26.0623C16.5473 27.9324 17.6644 29.5852 19.1953 30.791C16.3454 31.9274 13.895 33.881 12.1524 36.4063C9.95034 33.93 8.51109 30.87 8.00791 27.5947C7.50473 24.3195 7.95908 20.9685 9.31625 17.9455C10.6734 14.9225 12.8755 12.3562 15.6574 10.5557C18.4393 8.75527 21.6824 7.79736 24.9961 7.79736C28.3098 7.79736 31.5529 8.75527 34.3348 10.5557C37.1167 12.3562 39.3188 14.9225 40.676 17.9455C42.0331 20.9685 42.4875 24.3195 41.9843 27.5947C41.4811 30.87 40.0419 33.93 37.8399 36.4063Z" fill="#333232"/>
</svg>
