<svg width="58" height="58" viewBox="0 0 58 58" fill="none" xmlns="http://www.w3.org/2000/svg">
<rect width="58" height="58" rx="29" fill="#5BB264"/>
<path d="M29 5.4375C24.3398 5.4375 19.7842 6.81942 15.9094 9.4085C12.0346 11.9976 9.01449 15.6775 7.2311 19.983C5.44771 24.2885 4.98109 29.0261 5.89026 33.5968C6.79942 38.1675 9.04353 42.3659 12.3388 45.6612C15.6341 48.9565 19.8325 51.2006 24.4032 52.1098C28.9739 53.0189 33.7115 52.5523 38.017 50.7689C42.3225 48.9855 46.0024 45.9655 48.5915 42.0906C51.1806 38.2158 52.5625 33.6602 52.5625 29C52.5559 22.7529 50.0713 16.7635 45.6539 12.3461C41.2365 7.92869 35.2471 5.4441 29 5.4375ZM16.7838 44.7461C18.095 42.6954 19.9013 41.0078 22.0362 39.8389C24.1711 38.6699 26.566 38.0572 29 38.0572C31.434 38.0572 33.8289 38.6699 35.9638 39.8389C38.0987 41.0078 39.9051 42.6954 41.2163 44.7461C37.7234 47.4625 33.4248 48.9373 29 48.9373C24.5752 48.9373 20.2766 47.4625 16.7838 44.7461ZM21.75 27.1875C21.75 25.7536 22.1752 24.3519 22.9719 23.1596C23.7685 21.9674 24.9008 21.0381 26.2256 20.4894C27.5503 19.9406 29.0081 19.7971 30.4144 20.0768C31.8208 20.3565 33.1126 21.047 34.1265 22.061C35.1405 23.0749 35.831 24.3667 36.1107 25.7731C36.3904 27.1795 36.2469 28.6372 35.6981 29.962C35.1494 31.2867 34.2201 32.419 33.0279 33.2157C31.8356 34.0123 30.4339 34.4375 29 34.4375C27.0772 34.4375 25.2331 33.6737 23.8735 32.314C22.5138 30.9544 21.75 29.1103 21.75 27.1875ZM43.8988 42.2335C41.8773 39.3042 39.0349 37.038 35.7289 35.7198C37.5047 34.3212 38.8006 32.4038 39.4362 30.2345C40.0719 28.0652 40.0157 25.7518 39.2756 23.6158C38.5354 21.4799 37.1481 19.6278 35.3065 18.3169C33.4649 17.006 31.2605 16.3016 29 16.3016C26.7395 16.3016 24.5352 17.006 22.6936 18.3169C20.8519 19.6278 19.4646 21.4799 18.7245 23.6158C17.9843 25.7518 17.9282 28.0652 18.5638 30.2345C19.1994 32.4038 20.4953 34.3212 22.2711 35.7198C18.9651 37.038 16.1227 39.3042 14.1013 42.2335C11.5469 39.3611 9.87739 35.8115 9.29371 32.0122C8.71002 28.2128 9.23707 24.3258 10.8114 20.8191C12.3857 17.3123 14.9402 14.3355 18.1672 12.2469C21.3942 10.1584 25.1561 9.0472 29 9.0472C32.8439 9.0472 36.6059 10.1584 39.8329 12.2469C43.0599 14.3355 45.6143 17.3123 47.1886 20.8191C48.763 24.3258 49.29 28.2128 48.7063 32.0122C48.1226 35.8115 46.4531 39.3611 43.8988 42.2335Z" fill="#333232"/>
</svg>
