<svg width="53" height="52" viewBox="0 0 53 52" fill="none" xmlns="http://www.w3.org/2000/svg">
<path d="M26.4995 -0.00195312C21.3572 -0.00195312 16.3304 1.52292 12.0547 4.37984C7.77902 7.23675 4.44653 11.2974 2.47866 16.0483C0.510777 20.7992 -0.00410968 26.0269 0.999106 31.0704C2.00232 36.1139 4.47858 40.7467 8.11475 44.3828C11.7509 48.019 16.3837 50.4953 21.4272 51.4985C26.4707 52.5017 31.6984 51.9868 36.4493 50.0189C41.2002 48.051 45.2608 44.7186 48.1177 40.4429C50.9747 36.1672 52.4995 31.1404 52.4995 25.998C52.4922 19.1047 49.7506 12.4957 44.8763 7.62131C40.0019 2.74694 33.3929 0.00532642 26.4995 -0.00195312ZM13.0195 43.3731C14.4664 41.1103 16.4595 39.2481 18.8153 37.9582C21.1711 36.6683 23.8137 35.9922 26.4995 35.9922C29.1853 35.9922 31.8279 36.6683 34.1837 37.9582C36.5395 39.2481 38.5327 41.1103 39.9795 43.3731C36.1254 46.3705 31.3821 47.9979 26.4995 47.9979C21.617 47.9979 16.8737 46.3705 13.0195 43.3731ZM18.4995 23.998C18.4995 22.4158 18.9687 20.8691 19.8478 19.5535C20.7268 18.2379 21.9762 17.2125 23.4381 16.607C24.8999 16.0015 26.5084 15.8431 28.0602 16.1518C29.6121 16.4604 31.0376 17.2224 32.1564 18.3412C33.2752 19.46 34.0371 20.8855 34.3458 22.4373C34.6545 23.9892 34.4961 25.5977 33.8906 27.0595C33.2851 28.5213 32.2597 29.7708 30.9441 30.6498C29.6285 31.5289 28.0818 31.9981 26.4995 31.9981C24.3778 31.9981 22.343 31.1552 20.8427 29.6549C19.3424 28.1546 18.4995 26.1198 18.4995 23.998ZM42.9395 40.6006C40.7089 37.3682 37.5725 34.8676 33.9245 33.4131C35.8841 31.8697 37.314 29.754 38.0153 27.3603C38.7167 24.9666 38.6548 22.4138 37.8381 20.0569C37.0213 17.7 35.4905 15.6563 33.4584 14.2098C31.4263 12.7633 28.9939 11.986 26.4995 11.986C24.0052 11.986 21.5728 12.7633 19.5407 14.2098C17.5086 15.6563 15.9777 17.7 15.161 20.0569C14.3443 22.4138 14.2823 24.9666 14.9837 27.3603C15.6851 29.754 17.115 31.8697 19.0745 33.4131C15.4266 34.8676 12.2901 37.3682 10.0595 40.6006C7.24094 37.431 5.3987 33.5142 4.75464 29.3218C4.11057 25.1294 4.69214 20.8403 6.42932 16.9708C8.16649 13.1013 10.9852 9.81649 14.546 7.51189C18.1069 5.20729 22.258 3.98116 26.4995 3.98116C30.7411 3.98116 34.8922 5.20729 38.453 7.51189C42.0138 9.81649 44.8326 13.1013 46.5697 16.9708C48.3069 20.8403 48.8885 25.1294 48.2444 29.3218C47.6004 33.5142 45.7581 37.431 42.9395 40.6006Z" fill="#333232"/>
</svg>
