<svg width="75" height="71" viewBox="0 0 75 71" fill="none" xmlns="http://www.w3.org/2000/svg">
<path d="M33.9512 3.4255C35.0456 0.0572701 39.8108 0.0572701 40.9052 3.4255L46.5066 20.6649C47.2215 22.865 49.2717 24.3546 51.585 24.3546H69.7116C73.2532 24.3546 74.7257 28.8865 71.8605 30.9682L57.1958 41.6227C55.3243 42.9825 54.5412 45.3926 55.256 47.5927L60.8574 64.8321C61.9518 68.2004 58.0968 71.0013 55.2316 68.9196L40.5668 58.265C38.6953 56.9053 36.1611 56.9053 34.2896 58.265L19.6249 68.9196C16.7597 71.0013 12.9046 68.2004 13.999 64.8321L19.6004 47.5927C20.3153 45.3926 19.5322 42.9825 17.6607 41.6227L2.99595 30.9682C0.130756 28.8865 1.60327 24.3546 5.14484 24.3546H23.2714C25.5847 24.3546 27.635 22.865 28.3498 20.6649L33.9512 3.4255Z" fill="#F5F5F5" stroke="#333232" stroke-width="1.6838"/>
</svg>
