<svg width="74" height="71" viewBox="0 0 74 71" fill="none" xmlns="http://www.w3.org/2000/svg">
<path d="M33.7191 3.4255C34.8135 0.0572701 39.5786 0.0572701 40.673 3.4255L46.2745 20.6649C46.9893 22.865 49.0395 24.3546 51.3528 24.3546H69.4794C73.021 24.3546 74.4935 28.8865 71.6283 30.9682L56.9636 41.6227C55.0921 42.9825 54.309 45.3926 55.0238 47.5927L60.6253 64.8321C61.7197 68.2004 57.8646 71.0013 54.9994 68.9196L40.3347 58.265C38.4632 56.9053 35.9289 56.9053 34.0574 58.265L19.3927 68.9196C16.5275 71.0013 12.6724 68.2004 13.7668 64.8321L19.3683 47.5927C20.0831 45.3926 19.3 42.9825 17.4285 41.6227L2.76377 30.9682C-0.101421 28.8865 1.37109 24.3546 4.91266 24.3546H23.0393C25.3526 24.3546 27.4028 22.865 28.1176 20.6649L33.7191 3.4255Z" fill="#F5F07A" stroke="#333232" stroke-width="1.6838"/>
</svg>
